<svg width="220" height="121" xmlns="http://www.w3.org/2000/svg">
  <g fill="#FFF" fill-rule="nonzero">
    <path d="M59.864 113.796V83.97c0-12.878 2.477-24.957 9.854-34.191C77.095 40.544 86.584 36 96.123 36c3.636 0 6.007 2.7 6.007 6.192 0 3.334-2.352 5.758-4.998 6.153C82.1 50.588 72.036 60.63 72.036 83.97v29.826c0 3.334-2.529 6.192-6.007 6.192-3.477 0-6.165-2.699-6.165-6.192zM122.81 113.698v-72.42c0-3.387 2.668-6.29 5.964-6.29 3.452 0 6.12 2.742 6.12 6.29v72.42c0 3.548-2.511 6.29-5.963 6.29-3.453 0-6.12-2.742-6.12-6.29zM17 113.71V70.29c0-3.387 2.668-6.29 5.963-6.29 3.452 0 6.12 2.742 6.12 6.29v43.42c0 3.548-2.511 6.29-5.963 6.29S17 117.258 17 113.71zM191.066 121c-10.693 0-22.486-3.965-31.292-10.308-1.1-.793-2.202-2.379-2.202-4.44 0-2.855 2.36-5.233 5.347-5.233 1.1 0 2.201.317 2.988.951 8.334 5.71 16.982 8.722 25.788 8.722 9.75 0 16.826-5.074 16.826-13.004v-.317c0-8.246-9.592-11.418-20.285-14.43-12.737-3.648-26.89-8.088-26.89-23.154v-.317c0-14.114 11.637-23.47 27.676-23.47 8.649 0 18.084 2.696 25.946 6.978 1.573.951 2.988 2.696 2.988 5.074 0 2.855-2.359 5.233-5.347 5.233a6.04 6.04 0 0 1-2.673-.634c-6.919-3.964-14.31-6.343-21.228-6.343-9.593 0-15.725 5.074-15.725 11.893v.318c0 7.77 10.064 10.783 20.914 14.113C206.477 76.438 220 81.354 220 96.102v.318c0 15.54-12.737 24.58-28.934 24.58zM23.5 47C36.479 47 47 36.479 47 23.5S36.479 0 23.5 0 0 10.521 0 23.5 10.521 47 23.5 47zm0-12C17.124 35 12 29.826 12 23.5S17.124 12 23.5 12 35 17.174 35 23.5 29.876 35 23.5 35z"/>
  </g>
</svg>
