<?xml version="1.0" encoding="UTF-8" standalone="no"?>
<svg
   xmlns:dc="http://purl.org/dc/elements/1.1/"
   xmlns:cc="http://creativecommons.org/ns#"
   xmlns:rdf="http://www.w3.org/1999/02/22-rdf-syntax-ns#"
   xmlns:svg="http://www.w3.org/2000/svg"
   xmlns="http://www.w3.org/2000/svg"
   xmlns:sodipodi="http://sodipodi.sourceforge.net/DTD/sodipodi-0.dtd"
   xmlns:inkscape="http://www.inkscape.org/namespaces/inkscape"
   width="220"
   height="121"
   version="1.1"
   id="svg6"
   sodipodi:docname="IRIS_Logo_schwarz.svg"
   inkscape:version="0.92.4 (5da689c313, 2019-01-14)">
  <metadata
     id="metadata12">
    <rdf:RDF>
      <cc:Work
         rdf:about="">
        <dc:format>image/svg+xml</dc:format>
        <dc:type
           rdf:resource="http://purl.org/dc/dcmitype/StillImage" />
        <dc:title></dc:title>
      </cc:Work>
    </rdf:RDF>
  </metadata>
  <defs
     id="defs10" />
  <sodipodi:namedview
     pagecolor="#ffffff"
     bordercolor="#666666"
     borderopacity="1"
     objecttolerance="10"
     gridtolerance="10"
     guidetolerance="10"
     inkscape:pageopacity="0"
     inkscape:pageshadow="2"
     inkscape:window-width="2787"
     inkscape:window-height="1766"
     id="namedview8"
     showgrid="false"
     inkscape:zoom="5.5166017"
     inkscape:cx="93.777945"
     inkscape:cy="1.384997"
     inkscape:window-x="82"
     inkscape:window-y="-11"
     inkscape:window-maximized="1"
     inkscape:current-layer="svg6" />
  <g
     fill="#42C0EB"
     fill-rule="nonzero"
     id="g4">
    <path
       d="M59.864 113.796V83.97c0-12.878 2.477-24.957 9.854-34.191C77.095 40.544 86.584 36 96.123 36c3.636 0 6.007 2.7 6.007 6.192 0 3.334-2.352 5.758-4.998 6.153C82.1 50.588 72.036 60.63 72.036 83.97v29.826c0 3.334-2.529 6.192-6.007 6.192-3.477 0-6.165-2.699-6.165-6.192zM122.81 113.698v-72.42c0-3.387 2.668-6.29 5.964-6.29 3.452 0 6.12 2.742 6.12 6.29v72.42c0 3.548-2.511 6.29-5.963 6.29-3.453 0-6.12-2.742-6.12-6.29zM17 113.71V70.29c0-3.387 2.668-6.29 5.963-6.29 3.452 0 6.12 2.742 6.12 6.29v43.42c0 3.548-2.511 6.29-5.963 6.29S17 117.258 17 113.71zM191.066 121c-10.693 0-22.486-3.965-31.292-10.308-1.1-.793-2.202-2.379-2.202-4.44 0-2.855 2.36-5.233 5.347-5.233 1.1 0 2.201.317 2.988.951 8.334 5.71 16.982 8.722 25.788 8.722 9.75 0 16.826-5.074 16.826-13.004v-.317c0-8.246-9.592-11.418-20.285-14.43-12.737-3.648-26.89-8.088-26.89-23.154v-.317c0-14.114 11.637-23.47 27.676-23.47 8.649 0 18.084 2.696 25.946 6.978 1.573.951 2.988 2.696 2.988 5.074 0 2.855-2.359 5.233-5.347 5.233a6.04 6.04 0 0 1-2.673-.634c-6.919-3.964-14.31-6.343-21.228-6.343-9.593 0-15.725 5.074-15.725 11.893v.318c0 7.77 10.064 10.783 20.914 14.113C206.477 76.438 220 81.354 220 96.102v.318c0 15.54-12.737 24.58-28.934 24.58zM23.5 47C36.479 47 47 36.479 47 23.5S36.479 0 23.5 0 0 10.521 0 23.5 10.521 47 23.5 47zm0-12C17.124 35 12 29.826 12 23.5S17.124 12 23.5 12 35 17.174 35 23.5 29.876 35 23.5 35z"
       id="path2" />
  </g>
  <path
     style="stroke-width:0.18127102"
     d="M 19.408909,46.56174 C 13.403547,45.555008 7.5191968,41.719435 4.0995232,36.582684 1.3815923,32.500034 0.15104818,28.413102 0.15104818,23.468855 c 0,-4.869962 1.26058402,-9.033301 3.97920532,-13.142149 1.9036557,-2.8771319 5.7353226,-6.2047952 9.0734335,-7.879947 5.104566,-2.56160467 11.74783,-3.04558819 17.344001,-1.2635672 7.076913,2.2535423 12.617449,7.6535194 15.096059,14.7130872 0.910042,2.591975 1.190037,4.400699 1.186284,7.663211 -0.0057,4.987837 -1.139587,8.808512 -3.801333,12.809158 -3.60883,5.424129 -9.2127,9.099939 -15.556245,10.203983 -1.983941,0.345291 -5.970975,0.339905 -8.063544,-0.01089 z m 6.556018,-11.779966 c 3.485807,-0.770608 6.331758,-3.045587 7.916163,-6.327966 0.845532,-1.751669 1.129516,-3.060749 1.114918,-5.139418 -0.02202,-3.1356 -1.080126,-5.617787 -3.382627,-7.935226 -1.178204,-1.185848 -1.762437,-1.615479 -2.994424,-2.202021 -1.949241,-0.928026 -3.120754,-1.199671 -5.15604,-1.195556 -5.321406,0.01076 -9.833709,3.538085 -11.160029,8.723945 -1.824019,7.131846 3.704438,14.263544 11.124245,14.350257 0.678212,0.0079 1.82022,-0.115381 2.537794,-0.274015 z"
     id="path3717"
     inkscape:connector-curvature="0" />
  <path
     style="stroke-width:0.18127102"
     d="m 21.19703,119.63483 c -2.001383,-0.65357 -3.610087,-2.58027 -3.986061,-4.77397 -0.150133,-0.87599 -0.191491,-7.38511 -0.14993,-23.596644 l 0.05739,-22.386971 0.565915,-1.194322 c 0.66835,-1.4105 1.53892,-2.335877 2.838975,-3.017703 0.814274,-0.427053 1.159623,-0.496043 2.486418,-0.496708 1.194541,-5.99e-4 1.731275,0.08686 2.388367,0.389164 1.194556,0.549576 2.34999,1.680101 2.971439,2.907381 l 0.531502,1.049646 V 91.9893 115.4639 l -0.479999,1.02381 c -0.584955,1.24768 -1.609704,2.30559 -2.783931,2.87402 -1.106223,0.53552 -3.235483,0.66648 -4.440088,0.2731 z"
     id="path3719"
     inkscape:connector-curvature="0" />
  <path
     style="stroke-width:0.18127102"
     d="m 64.248896,119.66233 c -1.83282,-0.60709 -3.235034,-1.9261 -3.879913,-3.64969 l -0.398227,-1.06435 0.06404,-19.047562 c 0.07096,-21.107265 0.0549,-20.77781 1.318025,-27.028711 1.843555,-9.123292 5.339666,-16.084627 11.044137,-21.990704 5.174859,-5.357746 11.147462,-8.804735 17.654317,-10.188897 2.544995,-0.54138 6.904169,-0.688419 8.149218,-0.274881 1.238312,0.411302 2.603007,1.658791 3.245147,2.966442 0.44787,0.91203 0.50761,1.236439 0.50749,2.755793 -1.1e-4,1.398122 -0.0761,1.886842 -0.40423,2.597948 -0.50803,1.101163 -1.14603,1.86774 -2.155121,2.589469 -0.862408,0.616813 -1.360713,0.771607 -4.290881,1.332927 -2.674929,0.512425 -5.43862,1.467107 -7.923215,2.736973 -7.458389,3.811953 -12.09276,10.566409 -14.128073,20.591231 -0.946645,4.662646 -0.964103,5.064944 -1.080381,24.895299 l -0.108947,18.580283 -0.395039,0.85509 c -0.56423,1.22133 -1.890095,2.56478 -3.010361,3.0503 -1.150235,0.49851 -3.164225,0.63876 -4.207983,0.29304 z"
     id="path3721"
     inkscape:connector-curvature="0" />
  <path
     style="stroke-width:0.18127102"
     d="m 126.91519,119.57267 c -1.20124,-0.42868 -2.13274,-1.16475 -2.89375,-2.28665 -1.21869,-1.7966 -1.13964,1.12359 -1.08776,-40.186198 l 0.047,-37.443819 0.63444,-1.241339 c 2.28403,-4.468843 8.33921,-4.435468 10.55143,0.05816 l 0.59674,1.212152 v 37.798826 37.798828 l -0.51246,1.10891 c -0.98562,2.13275 -2.76112,3.33475 -5.10694,3.45734 -0.92099,0.0481 -1.53206,-0.0276 -2.22873,-0.27621 z"
     id="path3723"
     inkscape:connector-curvature="0" />
  <path
     style="stroke-width:0.18127102"
     d="m 187.87573,120.80879 c -8.13632,-0.56625 -17.18213,-3.46465 -24.47159,-7.84104 -4.59594,-2.75928 -5.49785,-3.78231 -5.67166,-6.43333 -0.0789,-1.20307 -0.037,-1.41624 0.48781,-2.48226 0.96739,-1.96504 2.46942,-2.88183 4.73068,-2.88744 1.54916,-0.004 1.51998,-0.0162 4.59744,1.95231 4.22577,2.70308 9.23005,4.97692 13.57249,6.16705 2.89159,0.7925 5.07836,1.15608 8.205,1.36422 10.95839,0.72947 18.58085,-4.089 19.22178,-12.150872 0.41778,-5.255083 -2.5298,-9.028357 -9.34947,-11.968475 -2.38848,-1.029732 -5.25933,-1.989626 -10.77867,-3.603936 -12.22359,-3.575198 -17.25173,-5.877325 -21.35168,-9.77584 -1.85348,-1.76242 -2.90915,-3.178547 -3.86021,-5.178287 -1.23898,-2.605142 -1.55768,-4.051222 -1.65931,-7.529005 -0.15893,-5.438613 0.84874,-9.27653 3.46903,-13.212517 3.68701,-5.538313 9.69965,-9.174213 17.6015,-10.643782 2.80746,-0.522126 10.53043,-0.475561 13.7766,0.08306 5.99943,1.032428 11.54661,2.856346 17.00676,5.591838 3.24927,1.627855 4.38581,3.125201 4.38008,5.770589 -0.002,1.138344 -0.0883,1.61062 -0.39919,2.196365 -0.60667,1.142988 -1.19853,1.757757 -2.25642,2.343758 -0.85866,0.475638 -1.13933,0.535465 -2.51201,0.535465 h -1.54533 l -3.07708,-1.566568 c -4.89139,-2.490251 -8.49373,-3.779432 -13.22041,-4.731233 -1.69589,-0.341499 -2.59743,-0.403404 -5.89915,-0.405071 -3.44369,-0.0017 -4.08315,0.04527 -5.49378,0.403851 -6.55905,1.667324 -10.4402,5.926212 -10.45492,11.472478 -0.0106,3.987248 2.27153,6.920324 7.3801,9.485215 2.97582,1.494084 6.73416,2.841773 15.00372,5.380118 14.53657,4.462006 21.30598,9.299426 23.70627,16.940498 0.74415,2.36892 0.91693,3.936008 0.80454,7.297194 -0.0807,2.41429 -0.19723,3.418257 -0.56946,4.907357 -2.18684,8.74835 -8.71151,14.89178 -18.51545,17.43356 -3.77643,0.97909 -8.56788,1.38331 -12.85801,1.08473 z"
     id="path3725"
     inkscape:connector-curvature="0" />
</svg>
