<?xml version="1.0" encoding="UTF-8" standalone="no"?>
<svg
   xmlns:dc="http://purl.org/dc/elements/1.1/"
   xmlns:cc="http://creativecommons.org/ns#"
   xmlns:rdf="http://www.w3.org/1999/02/22-rdf-syntax-ns#"
   xmlns:svg="http://www.w3.org/2000/svg"
   xmlns="http://www.w3.org/2000/svg"
   xmlns:sodipodi="http://sodipodi.sourceforge.net/DTD/sodipodi-0.dtd"
   xmlns:inkscape="http://www.inkscape.org/namespaces/inkscape"
   width="233"
   height="233"
   viewBox="0 0 233 233"
   version="1.1"
   id="svg2"
   inkscape:version="0.48.5 r10040"
   sodipodi:docname="smartBRIDGE_HH_Logo_positiv_Quadrat.svg"
   inkscape:export-filename="C:\Users\marc.wenner\Desktop\smartBRIDGE_HH_Logo_positiv_Quadrat.png"
   inkscape:export-xdpi="600"
   inkscape:export-ydpi="600">
  <metadata
     id="metadata23">
    <rdf:RDF>
      <cc:Work
         rdf:about="">
        <dc:format>image/svg+xml</dc:format>
        <dc:type
           rdf:resource="http://purl.org/dc/dcmitype/StillImage" />
        <dc:title>smartBRIDGE_HH_Logo_vektorisiert@2x</dc:title>
      </cc:Work>
    </rdf:RDF>
  </metadata>
  <defs
     id="defs21" />
  <sodipodi:namedview
     pagecolor="#ffffff"
     bordercolor="#666666"
     borderopacity="1"
     objecttolerance="10"
     gridtolerance="10"
     guidetolerance="10"
     inkscape:pageopacity="1"
     inkscape:pageshadow="2"
     inkscape:window-width="1920"
     inkscape:window-height="1001"
     id="namedview19"
     showgrid="false"
     inkscape:zoom="2.5493911"
     inkscape:cx="153.96196"
     inkscape:cy="117.91473"
     inkscape:window-x="-9"
     inkscape:window-y="-9"
     inkscape:window-maximized="1"
     inkscape:current-layer="svg2" />
  <!-- Generator: Sketch 53 (72520) - https://sketchapp.com -->
  <title
     id="title4">smartBRIDGE_HH_Logo_vektorisiert@2x</title>
  <desc
     id="desc6">Created with Sketch.</desc>
  <g
     style="fill:none;stroke:none"
     transform="matrix(1.195499,0,0,1.195499,-591.32848,-3.8219277)"
     id="smartBRIDGE_HH_Logo_pos">
    <g
       transform="translate(429,0)"
       id="Brigde">
      <path
         style="fill:#df2022;stroke:#df2022;stroke-width:2"
         inkscape:connector-curvature="0"
         id="Path-33"
         d="m 231.63592,194.09799 c 12.52461,-7.85071 26.50059,-33.45855 22.89438,-40.15928 -3.60621,-6.70073 -45.24912,-12.57662 -71.65572,-12.57662 -26.40659,0 -42.87348,11.7521 -71.8758,27.12708 -5.96184,4.11215 -16.939343,6.80344 -30.487764,8.67379 l -11.13775,-8.82522 c 16.550298,-2.54544 26.79434,-6.11139 35.489664,-11.51813 24.64614,-15.32492 26.21965,-16.71993 45.66674,-16.71993 19.44709,0 60.6333,8.71119 66.70079,12.42538 6.0675,3.71419 -8.22461,19.56629 -19.13437,28.49793 -7.27318,5.95442 -14.86305,10.31276 -22.76964,13.075 31.90468,0 50.6745,0 56.30947,0 z"
         sodipodi:nodetypes="csscccsssscc" />
      <path
         style="fill:#002d56;stroke:#002d56;stroke-width:1.19999993"
         inkscape:connector-curvature="0"
         id="Combined-Shape"
         d="m 142.89382,138.99766 -4.04692,0.69681 -9.83342,-55.477128 -13.23535,75.957708 26.69899,0 -1.19694,-6.75278 3.92078,-2.00348 2.0317,10.93823 -10.16202,12.7764 0.76216,0 0,1.89672 0.80954,0 0,9.4836 -19.42901,0 0,-9.4836 0.80955,0 0,-1.89672 0.48367,0 -9.86616,-14.16718 15.1842,-81.210741 c 0.0723,-15.977504 0.16222,-27.948609 0.26985,-35.913316 0.10763,-7.964707 0.28753,-9.305923 0.5397,-4.02365 l 2.33059,3.539415 2.65542,-3.810375 0.26985,40.207926 11.00382,59.242161 z m -26.32974,24.358 6.78867,9.74794 10.83658,0 7.40885,-9.74794 -25.0341,0 z" />
      <path
         style="fill:#002d56;stroke:#002d56;stroke-width:1.19999993"
         inkscape:connector-curvature="0"
         id="path13"
         d="m 200.8846,176.86957 -9.33944,10.45788 -14.2297,0 0,-13.69171 0.62024,0 0,-3.11175 0.67374,0 -11.09343,-16.79402 17.92841,-97.322805 0.12238,-47.1970587 2.75592,3.9030137 2.90771,-4.0109743 0.85639,4.0109743 0.64991,43.511284 15.80798,84.834036 -5.42011,0 -14.17123,-79.70421 -15.91009,91.02759 32.09459,0 -0.63183,-3.55367 5.66828,0.97566 1.01006,5.42049 -12.38941,14.89969 0.84915,0 0,3.11175 1.24048,0 0,3.23383 z m -26.89654,-20.27612 8.16059,11.68193 13.02656,0 8.90609,-11.68193 -30.09324,0 z" />
    </g>
    <g
       transform="translate(0,47)"
       id="Group-6" />
  </g>
</svg>
