<?xml version="1.0" encoding="UTF-8" standalone="no"?>
<!-- Created with Inkscape (http://www.inkscape.org/) -->

<svg
   xmlns:dc="http://purl.org/dc/elements/1.1/"
   xmlns:cc="http://creativecommons.org/ns#"
   xmlns:rdf="http://www.w3.org/1999/02/22-rdf-syntax-ns#"
   xmlns:svg="http://www.w3.org/2000/svg"
   xmlns="http://www.w3.org/2000/svg"
   xmlns:sodipodi="http://sodipodi.sourceforge.net/DTD/sodipodi-0.dtd"
   xmlns:inkscape="http://www.inkscape.org/namespaces/inkscape"
   width="32"
   height="32"
   id="svg2"
   version="1.1"
   inkscape:version="0.48.5 r10040"
   sodipodi:docname="Neues Dokument 1">
  <defs
     id="defs4" />
  <sodipodi:namedview
     id="base"
     pagecolor="#ffffff"
     bordercolor="#666666"
     borderopacity="1.0"
     inkscape:pageopacity="0.0"
     inkscape:pageshadow="2"
     inkscape:zoom="11.313709"
     inkscape:cx="-13.563278"
     inkscape:cy="22.009475"
     inkscape:document-units="px"
     inkscape:current-layer="layer1"
     showgrid="false"
     inkscape:window-width="1920"
     inkscape:window-height="1013"
     inkscape:window-x="-9"
     inkscape:window-y="-9"
     inkscape:window-maximized="1" />
  <metadata
     id="metadata7">
    <rdf:RDF>
      <cc:Work
         rdf:about="">
        <dc:format>image/svg+xml</dc:format>
        <dc:type
           rdf:resource="http://purl.org/dc/dcmitype/StillImage" />
        <dc:title></dc:title>
      </cc:Work>
    </rdf:RDF>
  </metadata>
  <g
     inkscape:label="Ebene 1"
     inkscape:groupmode="layer"
     id="layer1"
     transform="translate(0,-1020.3622)">
    <rect
       style="fill:#ffffff;fill-opacity:1;stroke:none;stroke-width:0.10000000000000001;stroke-miterlimit:4;stroke-opacity:1;stroke-dasharray:none"
       id="rect4138"
       width="32"
       height="32"
       x="0"
       y="1020.3622"
       rx="1.890625"
       ry="1.890625" />
    <g
       style="fill:none;stroke:none"
       id="Page-1"
       transform="matrix(0.06435089,0,0,0.06435089,-63.37927,1021.3504)">
      <g
         style="fill:#42c0eb"
         id="LogoÜbersicht"
         transform="translate(-65,-114)">
        <g
           id="Logo_final"
           transform="translate(65,114)">
          <path
             inkscape:connector-curvature="0"
             d="M 472.97243,186 403.34647,93.603234 473.88157,0 h 245.71842 c 4.63919,0 8.4,3.760808 8.4,8.3999999 V 177.6 c 0,4.63919 -3.76081,8.4 -8.4,8.4 z m -42.07176,0 h -97.18015 l 48.59007,-64.48121 z m -139.25191,0 H 182.52052 L 292.0106,40.70176 V 185.51983 z M 431.80981,0 325.61059,140.93112 V 0 z M 140.44876,186 H 34.120521 L 140.8106,44.417485 V 185.51983 z M 280.60981,0 174.4106,140.93112 V 0 z M 132.20982,0 0,175.44835 V 8.3999999 C 0,3.760808 3.760808,0 8.3999999,0 z"
             id="MKP_Bildmarke" />
        </g>
      </g>
    </g>
    <path
       id="Combined-Shape-Copy"
       d="m 10.116324,1048.5664 -9.30410992,-12.347 9.08906152,-12.0615 20.1680054,0 c 0.617732,0 1.118505,0.5008 1.118505,1.1184 l 0,22.1715 c 0,0.6179 -0.500773,1.1186 -1.118505,1.1186 z"
       inkscape:connector-curvature="0"
       style="fill:#42c0eb;stroke:none"
       sodipodi:nodetypes="cccssssc" />
  </g>
</svg>
